name D:\school\WTK\thesis\model\3dpredictsim\Results\batch_windlass\Pog_s1_tmt_aCst_d05_k1000_WL30_ig24.mot
datacolumns 128
datarows 4
range 0.53055680 0.56239021
endheader
time	pelvis_tilt	pelvis_list	pelvis_rotation	pelvis_tx	pelvis_ty	pelvis_tz	hip_flexion_l	hip_adduction_l	hip_rotation_l	hip_flexion_r	hip_adduction_r	hip_rotation_r	knee_angle_l	knee_angle_r	ankle_angle_l	ankle_angle_r	subtalar_angle_l	subtalar_angle_r	tmt_angle_l	tmt_angle_r	mtp_angle_l	mtp_angle_r	lumbar_extension	lumbar_bending	lumbar_rotation	arm_flex_l	arm_add_l	arm_rot_l	arm_flex_r	arm_add_r	arm_rot_r	elbow_flex_l	elbow_flex_r	pro_sup_l	pro_sup_r	glut_med1_l/activation	glut_med2_l/activation	glut_med3_l/activation	glut_min1_l/activation	glut_min2_l/activation	glut_min3_l/activation	semimem_l/activation	semiten_l/activation	bifemlh_l/activation	bifemsh_l/activation	sar_l/activation	add_long_l/activation	add_brev_l/activation	add_mag1_l/activation	add_mag2_l/activation	add_mag3_l/activation	tfl_l/activation	pect_l/activation	grac_l/activation	glut_max1_l/activation	glut_max2_l/activation	glut_max3_l/activation	iliacus_l/activation	psoas_l/activation	quad_fem_l/activation	gem_l/activation	peri_l/activation	rect_fem_l/activation	vas_med_l/activation	vas_int_l/activation	vas_lat_l/activation	med_gas_l/activation	lat_gas_l/activation	soleus_l/activation	tib_post_l/activation	flex_dig_l/activation	flex_hal_l/activation	tib_ant_l/activation	per_brev_l/activation	per_long_l/activation	per_tert_l/activation	ext_dig_l/activation	ext_hal_l/activation	ercspn_l/activation	intobl_l/activation	extobl_l/activation	glut_med1_r/activation	glut_med2_r/activation	glut_med3_r/activation	glut_min1_r/activation	glut_min2_r/activation	glut_min3_r/activation	semimem_r/activation	semiten_r/activation	bifemlh_r/activation	bifemsh_r/activation	sar_r/activation	add_long_r/activation	add_brev_r/activation	add_mag1_r/activation	add_mag2_r/activation	add_mag3_r/activation	tfl_r/activation	pect_r/activation	grac_r/activation	glut_max1_r/activation	glut_max2_r/activation	glut_max3_r/activation	iliacus_r/activation	psoas_r/activation	quad_fem_r/activation	gem_r/activation	peri_r/activation	rect_fem_r/activation	vas_med_r/activation	vas_int_r/activation	vas_lat_r/activation	med_gas_r/activation	lat_gas_r/activation	soleus_r/activation	tib_post_r/activation	flex_dig_r/activation	flex_hal_r/activation	tib_ant_r/activation	per_brev_r/activation	per_long_r/activation	per_tert_r/activation	ext_dig_r/activation	ext_hal_r/activation	ercspn_r/activation	intobl_r/activation	extobl_r/activation	
          0.53055680	         -2.92404337	          1.49301104	         -5.45331171	          0.66319600	          0.86179752	          0.00114692	         31.16837363	          1.99869061	         -2.39073761	        -16.94600210	         -1.41785039	          7.87778125	        -18.74173728	        -10.38324014	          1.97519823	         -0.12022424	          3.54253105	         14.34910538	         -0.24188462	         -8.67252757	          0.74605407	         28.27382131	         -1.06678611	          0.04322139	          1.67423894	        -10.50638310	        -13.63503173	          5.24587554	          4.06460623	        -13.46498323	         13.17013069	         19.70739860	         36.96899348	         86.51662706	         86.51662706	          0.05000040	          0.05000032	          0.05884259	          0.05000017	          0.05000023	          0.05000101	          0.05276846	          0.05884273	          0.05884226	          0.05884244	          0.05000243	          0.08282538	          0.10954450	          0.13722453	          0.13988369	          0.12116135	          0.05001209	          0.05004076	          0.05884298	          0.05884272	          0.05884279	          0.08854285	          0.05830141	          0.06098822	          0.22456976	          0.05000034	          0.05000047	          0.05029821	          0.12271212	          0.13269441	          0.10294999	          0.07582737	          0.06703531	          0.05350296	          0.05144371	          0.05884369	          0.05884512	          0.46521776	          0.30075116	          0.17468291	          0.08762194	          0.51687681	          0.14051768	          0.05006293	          0.10154594	          0.12098358	          0.31909022	          0.09853525	          0.05000063	          0.31435619	          0.20686914	          0.09694735	          0.05000639	          0.05000036	          0.05000027	          0.06925272	          0.07868105	          0.09589082	          0.05000139	          0.05000077	          0.05000225	          0.05000474	          0.25435235	          0.05001340	          0.05000072	          0.05000397	          0.05000230	          0.05000163	          0.25388924	          0.44760314	          0.05000019	          0.05000074	          0.05000014	          0.17785397	          0.06065171	          0.10255719	          0.08685657	          0.26221710	          0.33917719	          0.21479865	          0.19490608	          0.20322395	          0.25408694	          0.05000001	          0.14391134	          0.20813104	          0.05000012	          0.05000004	          0.05000011	          0.05000001	          0.05000034	          0.05000003	
          0.54116794	         -2.91331994	          1.58710086	         -5.68161046	          0.67940463	          0.86086179	          0.00092398	         30.53631900	          2.39995932	         -2.17172871	        -16.65095753	         -1.67043400	          7.62920803	        -18.31586654	        -12.46791906	          1.62255181	         -1.17065482	          3.04583298	         15.15576817	         -0.28608058	         -9.12253079	          0.88524286	         29.01541242	         -0.86529705	         -0.21287436	          1.74629290	        -11.48818718	        -13.63036401	          5.06433071	          3.79043238	        -13.49228472	         13.45001516	         19.62855761	         37.91795731	         86.51662706	         86.51662706	          0.05884251	          0.05884258	          0.05000011	          0.05884282	          0.05884272	          0.05591047	          0.05000008	          0.05000018	          0.05000019	          0.05000008	          0.05000056	          0.09590854	          0.22620200	          0.11660338	          0.15498381	          0.13580613	          0.05000015	          0.08146802	          0.05000058	          0.05000027	          0.05000021	          0.16448516	          0.05884261	          0.05204289	          0.35491819	          0.14930040	          0.10809677	          0.06924913	          0.23650539	          0.23216432	          0.19510810	          0.06443237	          0.05696158	          0.05562234	          0.05000003	          0.05000102	          0.05000227	          0.61923991	          0.25555567	          0.14843236	          0.46563552	          0.60702626	          0.29011458	          0.05000004	          0.08628606	          0.10280270	          0.27113880	          0.08372781	          0.05000002	          0.26711619	          0.17578180	          0.08237856	          0.05000123	          0.05000012	          0.05000009	          0.05884574	          0.06685733	          0.14384650	          0.26991064	          0.06345323	          0.05000217	          0.05000035	          0.21612950	          0.09597369	          0.05000051	          0.05000055	          0.05000035	          0.05000028	          0.21573590	          0.38034045	          0.05000005	          0.05000023	          0.05000015	          0.15112689	          0.05153797	          0.13282130	          0.11251691	          0.22281225	          0.28820712	          0.18251964	          0.16561648	          0.17268446	          0.21590393	          0.10240499	          0.12228505	          0.17685406	          0.05000018	          0.13125190	          0.05000043	          0.05000004	          0.05727641	          0.07033384	
          0.55177907	         -2.89795918	          1.68558869	         -5.88549926	          0.69582003	          0.85964251	          0.00070991	         29.75912533	          2.78069563	         -1.88068144	        -16.27349654	         -1.90781384	          7.36234844	        -18.40236668	        -14.74616569	          1.25794741	         -2.18041747	          2.50476934	         15.88433944	         -0.37850263	         -9.37413508	          1.08441008	         29.09497522	         -0.65164797	         -0.48004515	          1.80873658	        -12.45111380	        -13.63556796	          4.95158145	          3.45758423	        -13.53165507	         13.68440328	         19.50923140	         38.85057760	         86.51662706	         86.51662706	          0.05000004	          0.05000011	          0.14127364	          0.05000021	          0.05000014	          0.05000011	          0.05000026	          0.05000039	          0.05000024	          0.05000007	          0.05000033	          0.08149592	          0.19220958	          0.30629251	          0.26101694	          0.16703541	          0.05000035	          0.06924782	          0.09533906	          0.12179949	          0.12952041	          0.13976774	          0.05000012	          0.05000018	          0.30158308	          0.12686424	          0.09185251	          0.05884275	          0.28696813	          0.28587367	          0.23912233	          0.05884274	          0.05000027	          0.05416007	          0.05000004	          0.05000130	          0.05000033	          0.55668915	          0.21715219	          0.12768084	          0.45175346	          0.54053218	          0.24651751	          0.05000000	          0.07331937	          0.08735396	          0.23039327	          0.07114560	          0.05560798	          0.22697518	          0.14936612	          0.06999914	          0.07165539	          0.05000125	          0.05884334	          0.05000268	          0.05681039	          0.19403432	          0.38612581	          0.24598253	          0.12003744	          0.13284135	          0.18365064	          0.08155151	          0.05001206	          0.05694145	          0.05884371	          0.06917733	          0.18331607	          0.33200759	          0.05886098	          0.05884401	          0.05000130	          0.12841622	          0.09855719	          0.11286225	          0.09560869	          0.18932899	          0.24489661	          0.15509138	          0.14072839	          0.14673429	          0.18345890	          0.21685266	          0.10390869	          0.15027730	          0.20314238	          0.23085641	          0.15311556	          0.07149962	          0.06924903	          0.06709304	
          0.56239021	         -2.87946043	          1.79321679	         -6.06284119	          0.71229155	          0.85816131	          0.00051390	         28.78863466	          3.12096746	         -1.54564175	        -15.79342169	         -2.12800166	          7.09364835	        -18.67410464	        -17.25096019	          1.29001330	         -3.06347292	          1.91894090	         16.50169206	         -0.63727490	         -9.22551665	          1.16803462	         28.07967558	         -0.43763513	         -0.76055084	          1.85977653	        -13.36075336	        -13.65601308	          4.93663503	          3.09124520	        -13.57928698	         13.88271903	         19.32513851	         39.75614309	         86.51662706	         86.51662706	          0.29661615	          0.36368435	          0.49687872	          0.37988841	          0.26248162	          0.39662449	          0.07567973	          0.09182059	          0.08252963	          0.06924895	          0.05000116	          0.06924910	          0.16332519	          0.26026428	          0.22179256	          0.14193456	          0.05000025	          0.05884267	          0.08101224	          0.26849361	          0.19855565	          0.11876440	          0.05000198	          0.05000035	          0.25626255	          0.10779993	          0.26061112	          0.05000014	          0.30737890	          0.32132842	          0.26194932	          0.05000014	          0.05000016	          0.05014739	          0.05000043	          0.05000073	          0.05000152	          0.67634738	          0.18451952	          0.10849353	          0.46849659	          0.58637384	          0.38295470	          0.05915828	          0.08149590	          0.07422678	          0.26167617	          0.06045422	          0.05000008	          0.23120512	          0.12692038	          0.05948016	          0.10128856	          0.05000035	          0.05000074	          0.05000075	          0.06924844	          0.16487576	          0.32810054	          0.20901739	          0.10199886	          0.11287858	          0.26182578	          0.06929653	          0.05008413	          0.05000104	          0.05000148	          0.05878180	          0.16150017	          0.32801116	          0.05001565	          0.05000146	          0.05000027	          0.10911843	          0.08374647	          0.09590181	          0.08124105	          0.16087745	          0.20809463	          0.13178493	          0.11958060	          0.12468386	          0.15588967	          0.23429959	          0.13234498	          0.14501437	          0.22377259	          0.25363338	          0.13010615	          0.10704700	          0.05884259	          0.05701060	
